# xmcd
#
# Track frame offsets:
#	150
#	20137
#	40305
#	61605
#	82575
#	104160
#	125732
#	148040
#	172275
#	195012
#	216067
#	240007
#	255432
#	275387
#
# Disc length: 3966 seconds
#
# Revision: 1
# Processed by: cddbd v1.5PL3 Copyright (c) Steve Scherf et al.
# Submitted via: CDex 1.50Beta5
#
DISCID=bb0f7c0e
DTITLE=北島三郎 - 北島三郎ツインパック Disc2
DYEAR=1900
DGENRE=country
TTITLE0=まつり
TTITLE1=男の劇場
TTITLE2=北の漁場
TTITLE3=川
TTITLE4=年輪
TTITLE5=山
TTITLE6=北の大地
TTITLE7=谷
TTITLE8=竹
TTITLE9=陽だまり人情
TTITLE10=根っこ
TTITLE11=詠人(うたびと)
TTITLE12=未来
TTITLE13=十和田湖
EXTD=
EXTT0=
EXTT1=
EXTT2=
EXTT3=
EXTT4=
EXTT5=
EXTT6=
EXTT7=
EXTT8=
EXTT9=
EXTT10=
EXTT11=
EXTT12=
EXTT13=
PLAYORDER=
